<?xml version="1.0" standalone="no"?><!DOCTYPE svg PUBLIC "-//W3C//DTD SVG 1.1//EN" "http://www.w3.org/Graphics/SVG/1.1/DTD/svg11.dtd"><svg t="1710897838402" class="icon" viewBox="0 0 1024 1024" version="1.1" xmlns="http://www.w3.org/2000/svg" p-id="2550" xmlns:xlink="http://www.w3.org/1999/xlink" width="200" height="200"><path d="M512 1024c-27.694545 0-45.847273-17.687273-55.877818-27.857455C190.952727 968.843636 0 772.375273 0 524.497455c0-193.396364 114.501818-332.311273 311.994182-386.769455l-62.417455-46.848 124.811637-60.881455L364.101818 0h295.726546l-10.286546 29.998545 124.788364 60.881455-62.347637 46.848C909.498182 192.186182 1024 331.101091 1024 524.520727c0 247.877818-190.999273 444.369455-456.122182 471.621818C557.800727 1006.312727 539.648 1024 512 1024z" fill="#25467A" p-id="2551"></path><path d="M486.4 38.4h-51.2l25.6 76.8-64-51.2-51.2 25.6L512 217.6V102.4l-25.6-63.976727zM537.6 38.4h51.2l-25.6 76.8 64-51.2 51.2 25.6L512 217.6V102.4l25.6-63.976727z" fill="#95D13C" p-id="2552"></path><path d="M972.8 521.960727c0 239.662545-185.879273 410.88-422.4 430.312728-12.683636 1.024-25.483636 26.926545-38.4 26.926545-12.939636 0-25.739636-25.902545-38.4-26.926545-236.567273-19.432727-422.4-190.650182-422.4-430.312728C51.2 269.451636 257.536 153.6 512 153.6c254.440727 0 460.8 115.828364 460.8 368.337455z" fill="#FCFFFF" p-id="2553"></path><path d="M972.8 521.960727c0 239.662545-185.879273 410.88-422.4 430.312728-12.683636 1.024-25.483636 26.926545-38.4 26.926545-12.939636 0-25.739636-25.902545-38.4-26.926545-185.344-15.243636-339.432727-123.578182-397.730909-285.021091a512.395636 512.395636 0 0 0 346.530909 134.144c264.168727 0 481.652364-198.516364 509.021091-453.445819 26.530909 48.523636 41.355636 106.309818 41.355636 174.010182z" fill="#CCCCCC" opacity=".219" p-id="2554"></path><path d="M512 550.4a64.069818 64.069818 0 0 1-64-64 12.8 12.8 0 1 1 25.6 0 38.4 38.4 0 1 0 76.8 0 12.8 12.8 0 1 1 25.6 0A64.069818 64.069818 0 0 1 512 550.4zM345.6 384a38.4 38.4 0 1 0 76.8 0 38.4 38.4 0 1 0-76.8 0zM601.6 384a38.4 38.4 0 1 0 76.8 0 38.4 38.4 0 1 0-76.8 0z" fill="#25467A" p-id="2555"></path><path d="M332.8 448h-51.2a25.6 25.6 0 1 0 0 51.2h51.2a25.6 25.6 0 1 0 0-51.2z m409.6 0h-51.2a25.6 25.6 0 1 0-0.023273 51.2h51.2a25.6 25.6 0 0 0 0-51.2z" fill="#FAAD96" p-id="2556"></path></svg>